<mxfile host="65bd71144e">
    <diagram name="Esboço Principal" id="gY-7vrEUTvwIyoiWlh-5">
        <mxGraphModel dx="1186" dy="800" grid="1" gridSize="13" guides="1" tooltips="1" connect="1" arrows="1" fold="1" page="1" pageScale="1" pageWidth="1169" pageHeight="827" math="0" shadow="0">
            <root>
                <mxCell id="7qCP1VUS-daBsZMcQC1O-0"/>
                <mxCell id="7qCP1VUS-daBsZMcQC1O-1" parent="7qCP1VUS-daBsZMcQC1O-0"/>
                <mxCell id="7qCP1VUS-daBsZMcQC1O-49" style="edgeStyle=none;html=1;exitX=1;exitY=0.5;exitDx=0;exitDy=0;entryX=0;entryY=0.5;entryDx=0;entryDy=0;" parent="7qCP1VUS-daBsZMcQC1O-1" source="7qCP1VUS-daBsZMcQC1O-3" target="7qCP1VUS-daBsZMcQC1O-27" edge="1">
                    <mxGeometry relative="1" as="geometry"/>
                </mxCell>
                <mxCell id="7qCP1VUS-daBsZMcQC1O-3" value="Aplicativo" style="ellipse;whiteSpace=wrap;html=1;" parent="7qCP1VUS-daBsZMcQC1O-1" vertex="1">
                    <mxGeometry x="52" y="65" width="104" height="67" as="geometry"/>
                </mxCell>
                <mxCell id="7qCP1VUS-daBsZMcQC1O-56" style="edgeStyle=none;html=1;exitX=0.5;exitY=1;exitDx=0;exitDy=0;entryX=0.5;entryY=0;entryDx=0;entryDy=0;" parent="7qCP1VUS-daBsZMcQC1O-1" source="7qCP1VUS-daBsZMcQC1O-6" target="7qCP1VUS-daBsZMcQC1O-54" edge="1">
                    <mxGeometry relative="1" as="geometry"/>
                </mxCell>
                <mxCell id="7qCP1VUS-daBsZMcQC1O-6" value="Registro Paciente" style="rounded=0;whiteSpace=wrap;html=1;" parent="7qCP1VUS-daBsZMcQC1O-1" vertex="1">
                    <mxGeometry x="420.75" y="378" width="86.25" height="49" as="geometry"/>
                </mxCell>
                <mxCell id="7qCP1VUS-daBsZMcQC1O-69" style="edgeStyle=none;html=1;exitX=0.5;exitY=1;exitDx=0;exitDy=0;fontSize=12;entryX=1;entryY=0.5;entryDx=0;entryDy=0;" parent="7qCP1VUS-daBsZMcQC1O-1" source="7qCP1VUS-daBsZMcQC1O-19" target="7qCP1VUS-daBsZMcQC1O-62" edge="1">
                    <mxGeometry relative="1" as="geometry">
                        <mxPoint x="979" y="585" as="targetPoint"/>
                        <Array as="points">
                            <mxPoint x="858" y="572"/>
                        </Array>
                    </mxGeometry>
                </mxCell>
                <mxCell id="7qCP1VUS-daBsZMcQC1O-70" value="IDS (Médico, Paciente)" style="edgeLabel;html=1;align=center;verticalAlign=middle;resizable=0;points=[];fontSize=12;" parent="7qCP1VUS-daBsZMcQC1O-69" vertex="1" connectable="0">
                    <mxGeometry x="0.1742" y="2" relative="1" as="geometry">
                        <mxPoint x="-3" y="-15" as="offset"/>
                    </mxGeometry>
                </mxCell>
                <mxCell id="7qCP1VUS-daBsZMcQC1O-19" value="Servidor" style="shape=datastore;whiteSpace=wrap;html=1;rounded=0;" parent="7qCP1VUS-daBsZMcQC1O-1" vertex="1">
                    <mxGeometry x="822" y="272.62" width="70" height="100" as="geometry"/>
                </mxCell>
                <mxCell id="7qCP1VUS-daBsZMcQC1O-75" style="edgeStyle=none;html=1;exitX=1;exitY=0.5;exitDx=0;exitDy=0;entryX=0;entryY=0.5;entryDx=0;entryDy=0;fontSize=12;" parent="7qCP1VUS-daBsZMcQC1O-1" source="7qCP1VUS-daBsZMcQC1O-26" target="7qCP1VUS-daBsZMcQC1O-72" edge="1">
                    <mxGeometry relative="1" as="geometry"/>
                </mxCell>
                <mxCell id="7qCP1VUS-daBsZMcQC1O-26" value="Tela de Exames" style="rounded=0;whiteSpace=wrap;html=1;" parent="7qCP1VUS-daBsZMcQC1O-1" vertex="1">
                    <mxGeometry x="315" y="72.5" width="117" height="53.5" as="geometry"/>
                </mxCell>
                <mxCell id="7qCP1VUS-daBsZMcQC1O-42" style="edgeStyle=none;html=1;exitX=1;exitY=0.5;exitDx=0;exitDy=0;entryX=0;entryY=0.5;entryDx=0;entryDy=0;" parent="7qCP1VUS-daBsZMcQC1O-1" source="7qCP1VUS-daBsZMcQC1O-27" target="7qCP1VUS-daBsZMcQC1O-26" edge="1">
                    <mxGeometry relative="1" as="geometry"/>
                </mxCell>
                <mxCell id="7qCP1VUS-daBsZMcQC1O-27" value="" style="ellipse;whiteSpace=wrap;html=1;" parent="7qCP1VUS-daBsZMcQC1O-1" vertex="1">
                    <mxGeometry x="208" y="85.25" width="28" height="28" as="geometry"/>
                </mxCell>
                <mxCell id="7qCP1VUS-daBsZMcQC1O-33" style="edgeStyle=none;html=1;exitX=0.5;exitY=0;exitDx=0;exitDy=0;entryX=0.5;entryY=0;entryDx=0;entryDy=0;" parent="7qCP1VUS-daBsZMcQC1O-1" source="7qCP1VUS-daBsZMcQC1O-28" target="7qCP1VUS-daBsZMcQC1O-29" edge="1">
                    <mxGeometry relative="1" as="geometry">
                        <Array as="points">
                            <mxPoint x="925" y="26"/>
                            <mxPoint x="742" y="26"/>
                        </Array>
                    </mxGeometry>
                </mxCell>
                <mxCell id="7qCP1VUS-daBsZMcQC1O-28" value="Exames Pendentes" style="rounded=0;whiteSpace=wrap;html=1;" parent="7qCP1VUS-daBsZMcQC1O-1" vertex="1">
                    <mxGeometry x="873" y="67.36999999999999" width="104" height="61.5" as="geometry"/>
                </mxCell>
                <mxCell id="7qCP1VUS-daBsZMcQC1O-31" style="edgeStyle=none;html=1;exitX=1;exitY=0.5;exitDx=0;exitDy=0;entryX=0;entryY=0.5;entryDx=0;entryDy=0;" parent="7qCP1VUS-daBsZMcQC1O-1" source="7qCP1VUS-daBsZMcQC1O-29" target="7qCP1VUS-daBsZMcQC1O-28" edge="1">
                    <mxGeometry relative="1" as="geometry"/>
                </mxCell>
                <mxCell id="7qCP1VUS-daBsZMcQC1O-32" value="NÃO" style="edgeLabel;html=1;align=center;verticalAlign=middle;resizable=0;points=[];" parent="7qCP1VUS-daBsZMcQC1O-31" vertex="1" connectable="0">
                    <mxGeometry x="-0.1876" y="-1" relative="1" as="geometry">
                        <mxPoint y="-15" as="offset"/>
                    </mxGeometry>
                </mxCell>
                <mxCell id="7qCP1VUS-daBsZMcQC1O-35" style="edgeStyle=none;html=1;entryX=0;entryY=0.5;entryDx=0;entryDy=0;" parent="7qCP1VUS-daBsZMcQC1O-1" source="7qCP1VUS-daBsZMcQC1O-29" target="7qCP1VUS-daBsZMcQC1O-19" edge="1">
                    <mxGeometry relative="1" as="geometry">
                        <mxPoint x="754" y="286" as="targetPoint"/>
                        <Array as="points">
                            <mxPoint x="742" y="323"/>
                        </Array>
                    </mxGeometry>
                </mxCell>
                <mxCell id="7qCP1VUS-daBsZMcQC1O-36" value="SIM" style="edgeLabel;html=1;align=center;verticalAlign=middle;resizable=0;points=[];" parent="7qCP1VUS-daBsZMcQC1O-35" vertex="1" connectable="0">
                    <mxGeometry x="0.4193" y="4" relative="1" as="geometry">
                        <mxPoint x="-24" y="-125" as="offset"/>
                    </mxGeometry>
                </mxCell>
                <mxCell id="7qCP1VUS-daBsZMcQC1O-29" value="Tem &lt;br&gt;Internet?" style="rhombus;whiteSpace=wrap;html=1;" parent="7qCP1VUS-daBsZMcQC1O-1" vertex="1">
                    <mxGeometry x="702" y="58.5" width="80" height="80" as="geometry"/>
                </mxCell>
                <mxCell id="7qCP1VUS-daBsZMcQC1O-38" style="edgeStyle=none;html=1;exitX=1;exitY=0.5;exitDx=0;exitDy=0;entryX=0;entryY=0.5;entryDx=0;entryDy=0;" parent="7qCP1VUS-daBsZMcQC1O-1" source="7qCP1VUS-daBsZMcQC1O-37" target="7qCP1VUS-daBsZMcQC1O-29" edge="1">
                    <mxGeometry relative="1" as="geometry"/>
                </mxCell>
                <mxCell id="7qCP1VUS-daBsZMcQC1O-37" value="" style="ellipse;whiteSpace=wrap;html=1;" parent="7qCP1VUS-daBsZMcQC1O-1" vertex="1">
                    <mxGeometry x="637" y="84.5" width="28" height="28" as="geometry"/>
                </mxCell>
                <mxCell id="7qCP1VUS-daBsZMcQC1O-43" style="edgeStyle=none;html=1;exitX=0.5;exitY=1;exitDx=0;exitDy=0;entryX=0.5;entryY=0;entryDx=0;entryDy=0;" parent="7qCP1VUS-daBsZMcQC1O-1" source="7qCP1VUS-daBsZMcQC1O-39" target="7qCP1VUS-daBsZMcQC1O-44" edge="1">
                    <mxGeometry relative="1" as="geometry">
                        <mxPoint x="374" y="298" as="targetPoint"/>
                    </mxGeometry>
                </mxCell>
                <mxCell id="7qCP1VUS-daBsZMcQC1O-39" value="Pressionou&lt;br&gt;o botão &quot;+&quot;" style="shape=trapezoid;perimeter=trapezoidPerimeter;whiteSpace=wrap;html=1;fixedSize=1;" parent="7qCP1VUS-daBsZMcQC1O-1" vertex="1">
                    <mxGeometry x="325.75" y="194" width="95.5" height="52" as="geometry"/>
                </mxCell>
                <mxCell id="7qCP1VUS-daBsZMcQC1O-45" style="edgeStyle=none;html=1;exitX=1;exitY=0.5;exitDx=0;exitDy=0;entryX=0.5;entryY=0;entryDx=0;entryDy=0;" parent="7qCP1VUS-daBsZMcQC1O-1" source="7qCP1VUS-daBsZMcQC1O-44" target="7qCP1VUS-daBsZMcQC1O-6" edge="1">
                    <mxGeometry relative="1" as="geometry">
                        <mxPoint x="481" y="351" as="targetPoint"/>
                        <Array as="points">
                            <mxPoint x="464" y="335"/>
                        </Array>
                    </mxGeometry>
                </mxCell>
                <mxCell id="7qCP1VUS-daBsZMcQC1O-52" value="NÃO" style="edgeLabel;html=1;align=center;verticalAlign=middle;resizable=0;points=[];" parent="7qCP1VUS-daBsZMcQC1O-45" vertex="1" connectable="0">
                    <mxGeometry x="-0.6965" y="2" relative="1" as="geometry">
                        <mxPoint x="1" y="-11" as="offset"/>
                    </mxGeometry>
                </mxCell>
                <mxCell id="7qCP1VUS-daBsZMcQC1O-48" style="edgeStyle=none;html=1;exitX=0.5;exitY=1;exitDx=0;exitDy=0;entryX=0.5;entryY=0;entryDx=0;entryDy=0;" parent="7qCP1VUS-daBsZMcQC1O-1" source="7qCP1VUS-daBsZMcQC1O-44" target="7qCP1VUS-daBsZMcQC1O-47" edge="1">
                    <mxGeometry relative="1" as="geometry"/>
                </mxCell>
                <mxCell id="7qCP1VUS-daBsZMcQC1O-51" value="SIM" style="edgeLabel;html=1;align=center;verticalAlign=middle;resizable=0;points=[];" parent="7qCP1VUS-daBsZMcQC1O-48" vertex="1" connectable="0">
                    <mxGeometry x="-0.4419" relative="1" as="geometry">
                        <mxPoint x="-14" y="15" as="offset"/>
                    </mxGeometry>
                </mxCell>
                <mxCell id="7qCP1VUS-daBsZMcQC1O-44" value="Paciente&lt;br&gt;Existente?" style="rhombus;whiteSpace=wrap;html=1;" parent="7qCP1VUS-daBsZMcQC1O-1" vertex="1">
                    <mxGeometry x="333.5" y="294" width="80" height="84" as="geometry"/>
                </mxCell>
                <mxCell id="7qCP1VUS-daBsZMcQC1O-63" style="edgeStyle=none;html=1;exitX=0.5;exitY=1;exitDx=0;exitDy=0;entryX=0.5;entryY=0;entryDx=0;entryDy=0;fontSize=10;" parent="7qCP1VUS-daBsZMcQC1O-1" source="7qCP1VUS-daBsZMcQC1O-47" target="7qCP1VUS-daBsZMcQC1O-62" edge="1">
                    <mxGeometry relative="1" as="geometry"/>
                </mxCell>
                <mxCell id="7qCP1VUS-daBsZMcQC1O-47" value="" style="ellipse;whiteSpace=wrap;html=1;" parent="7qCP1VUS-daBsZMcQC1O-1" vertex="1">
                    <mxGeometry x="359.51" y="481" width="28" height="28" as="geometry"/>
                </mxCell>
                <mxCell id="7qCP1VUS-daBsZMcQC1O-55" style="edgeStyle=none;html=1;exitX=0;exitY=0.5;exitDx=0;exitDy=0;entryX=1;entryY=0.5;entryDx=0;entryDy=0;" parent="7qCP1VUS-daBsZMcQC1O-1" source="7qCP1VUS-daBsZMcQC1O-54" target="7qCP1VUS-daBsZMcQC1O-47" edge="1">
                    <mxGeometry relative="1" as="geometry"/>
                </mxCell>
                <mxCell id="7qCP1VUS-daBsZMcQC1O-58" style="edgeStyle=none;html=1;exitX=1;exitY=0.5;exitDx=0;exitDy=0;entryX=0.5;entryY=1;entryDx=0;entryDy=0;" parent="7qCP1VUS-daBsZMcQC1O-1" source="7qCP1VUS-daBsZMcQC1O-54" target="7qCP1VUS-daBsZMcQC1O-37" edge="1">
                    <mxGeometry relative="1" as="geometry">
                        <Array as="points">
                            <mxPoint x="651" y="495"/>
                        </Array>
                    </mxGeometry>
                </mxCell>
                <mxCell id="7qCP1VUS-daBsZMcQC1O-54" value="" style="ellipse;whiteSpace=wrap;html=1;" parent="7qCP1VUS-daBsZMcQC1O-1" vertex="1">
                    <mxGeometry x="450.37" y="481" width="28" height="28" as="geometry"/>
                </mxCell>
                <mxCell id="7qCP1VUS-daBsZMcQC1O-59" value="&lt;font style=&quot;font-size: 10px&quot;&gt;- Informações de Entrada&lt;br&gt;1. Nome;&lt;br&gt;2. Data de Nascimento;&lt;br&gt;3. Sexo;&lt;br&gt;&lt;/font&gt;" style="text;html=1;align=center;verticalAlign=middle;resizable=0;points=[];autosize=1;strokeColor=none;fillColor=none;" parent="7qCP1VUS-daBsZMcQC1O-1" vertex="1">
                    <mxGeometry x="507" y="313" width="130" height="65" as="geometry"/>
                </mxCell>
                <mxCell id="7qCP1VUS-daBsZMcQC1O-61" value="" style="endArrow=none;dashed=1;html=1;dashPattern=1 3;strokeWidth=2;fontSize=10;exitX=0.75;exitY=0;exitDx=0;exitDy=0;entryX=-0.015;entryY=0.462;entryDx=0;entryDy=0;entryPerimeter=0;" parent="7qCP1VUS-daBsZMcQC1O-1" source="7qCP1VUS-daBsZMcQC1O-6" target="7qCP1VUS-daBsZMcQC1O-59" edge="1">
                    <mxGeometry width="50" height="50" relative="1" as="geometry">
                        <mxPoint x="494" y="361" as="sourcePoint"/>
                        <mxPoint x="544" y="311" as="targetPoint"/>
                        <Array as="points">
                            <mxPoint x="486" y="343"/>
                        </Array>
                    </mxGeometry>
                </mxCell>
                <mxCell id="7qCP1VUS-daBsZMcQC1O-65" style="edgeStyle=none;html=1;exitX=0.5;exitY=1;exitDx=0;exitDy=0;entryX=0.5;entryY=0;entryDx=0;entryDy=0;fontSize=10;" parent="7qCP1VUS-daBsZMcQC1O-1" source="7qCP1VUS-daBsZMcQC1O-62" target="7qCP1VUS-daBsZMcQC1O-64" edge="1">
                    <mxGeometry relative="1" as="geometry"/>
                </mxCell>
                <mxCell id="7qCP1VUS-daBsZMcQC1O-62" value="Configuração&lt;br&gt;Exame" style="rounded=0;whiteSpace=wrap;html=1;" parent="7qCP1VUS-daBsZMcQC1O-1" vertex="1">
                    <mxGeometry x="330.38" y="547" width="86.25" height="49" as="geometry"/>
                </mxCell>
                <mxCell id="7qCP1VUS-daBsZMcQC1O-67" style="edgeStyle=none;html=1;exitX=0.5;exitY=1;exitDx=0;exitDy=0;entryX=0.5;entryY=1;entryDx=0;entryDy=0;fontSize=12;" parent="7qCP1VUS-daBsZMcQC1O-1" source="7qCP1VUS-daBsZMcQC1O-64" target="7qCP1VUS-daBsZMcQC1O-66" edge="1">
                    <mxGeometry relative="1" as="geometry">
                        <Array as="points">
                            <mxPoint x="373" y="741"/>
                            <mxPoint x="222" y="741"/>
                        </Array>
                    </mxGeometry>
                </mxCell>
                <mxCell id="7qCP1VUS-daBsZMcQC1O-64" value="Execução&lt;br&gt;Exame" style="rounded=0;whiteSpace=wrap;html=1;" parent="7qCP1VUS-daBsZMcQC1O-1" vertex="1">
                    <mxGeometry x="329.5" y="652" width="86.25" height="49" as="geometry"/>
                </mxCell>
                <mxCell id="7qCP1VUS-daBsZMcQC1O-68" style="edgeStyle=none;html=1;exitX=0.5;exitY=0;exitDx=0;exitDy=0;entryX=0.5;entryY=1;entryDx=0;entryDy=0;fontSize=12;" parent="7qCP1VUS-daBsZMcQC1O-1" source="7qCP1VUS-daBsZMcQC1O-66" target="7qCP1VUS-daBsZMcQC1O-27" edge="1">
                    <mxGeometry relative="1" as="geometry"/>
                </mxCell>
                <mxCell id="7qCP1VUS-daBsZMcQC1O-66" value="&lt;font style=&quot;font-size: 12px&quot;&gt;Local&lt;br&gt;DB&lt;/font&gt;" style="shape=internalStorage;whiteSpace=wrap;html=1;backgroundOutline=1;fontSize=10;" parent="7qCP1VUS-daBsZMcQC1O-1" vertex="1">
                    <mxGeometry x="182" y="338" width="80" height="80" as="geometry"/>
                </mxCell>
                <mxCell id="7qCP1VUS-daBsZMcQC1O-71" value="&lt;font style=&quot;font-size: 10px&quot;&gt;- Informações de Entrada&lt;br&gt;1. Paciente;&lt;br&gt;2. Médico;&lt;br&gt;&lt;/font&gt;" style="text;html=1;align=center;verticalAlign=middle;resizable=0;points=[];autosize=1;strokeColor=none;fillColor=none;" parent="7qCP1VUS-daBsZMcQC1O-1" vertex="1">
                    <mxGeometry x="432" y="600" width="130" height="52" as="geometry"/>
                </mxCell>
                <mxCell id="7qCP1VUS-daBsZMcQC1O-73" style="edgeStyle=none;html=1;exitX=1;exitY=0.5;exitDx=0;exitDy=0;entryX=0;entryY=0.5;entryDx=0;entryDy=0;fontSize=12;" parent="7qCP1VUS-daBsZMcQC1O-1" source="7qCP1VUS-daBsZMcQC1O-72" target="7qCP1VUS-daBsZMcQC1O-37" edge="1">
                    <mxGeometry relative="1" as="geometry"/>
                </mxCell>
                <mxCell id="7qCP1VUS-daBsZMcQC1O-77" style="edgeStyle=none;html=1;exitX=0.5;exitY=1;exitDx=0;exitDy=0;entryX=0.5;entryY=0;entryDx=0;entryDy=0;fontSize=12;" parent="7qCP1VUS-daBsZMcQC1O-1" source="7qCP1VUS-daBsZMcQC1O-72" target="7qCP1VUS-daBsZMcQC1O-39" edge="1">
                    <mxGeometry relative="1" as="geometry">
                        <Array as="points">
                            <mxPoint x="571" y="156"/>
                            <mxPoint x="374" y="156"/>
                        </Array>
                    </mxGeometry>
                </mxCell>
                <mxCell id="7qCP1VUS-daBsZMcQC1O-72" value="" style="ellipse;whiteSpace=wrap;html=1;" parent="7qCP1VUS-daBsZMcQC1O-1" vertex="1">
                    <mxGeometry x="557" y="84.5" width="28" height="28" as="geometry"/>
                </mxCell>
                <mxCell id="7qCP1VUS-daBsZMcQC1O-79" value="" style="endArrow=none;dashed=1;html=1;dashPattern=1 3;strokeWidth=2;fontSize=12;exitX=0.75;exitY=1;exitDx=0;exitDy=0;entryX=-0.008;entryY=0.462;entryDx=0;entryDy=0;entryPerimeter=0;" parent="7qCP1VUS-daBsZMcQC1O-1" source="7qCP1VUS-daBsZMcQC1O-62" target="7qCP1VUS-daBsZMcQC1O-71" edge="1">
                    <mxGeometry width="50" height="50" relative="1" as="geometry">
                        <mxPoint x="457" y="713" as="sourcePoint"/>
                        <mxPoint x="507" y="663" as="targetPoint"/>
                        <Array as="points">
                            <mxPoint x="395" y="624"/>
                        </Array>
                    </mxGeometry>
                </mxCell>
            </root>
        </mxGraphModel>
    </diagram>
    <diagram id="qQe4sB-NspFOXT0RWF73" name="Esboço">
        <mxGraphModel dx="1186" dy="800" grid="1" gridSize="13" guides="1" tooltips="1" connect="1" arrows="1" fold="1" page="1" pageScale="1" pageWidth="827" pageHeight="1169" math="0" shadow="0">
            <root>
                <mxCell id="0"/>
                <mxCell id="1" parent="0"/>
                <mxCell id="40" style="edgeStyle=none;html=1;exitX=0.5;exitY=1;exitDx=0;exitDy=0;rounded=0;" parent="1" source="2" target="7" edge="1">
                    <mxGeometry relative="1" as="geometry"/>
                </mxCell>
                <mxCell id="2" value="Tela de Registro do Paciente" style="ellipse;whiteSpace=wrap;html=1;rounded=0;" parent="1" vertex="1">
                    <mxGeometry x="660" y="114" width="120" height="100" as="geometry"/>
                </mxCell>
                <mxCell id="3" value="Servidor" style="shape=datastore;whiteSpace=wrap;html=1;rounded=0;" parent="1" vertex="1">
                    <mxGeometry x="379" y="454" width="70" height="100" as="geometry"/>
                </mxCell>
                <mxCell id="79" style="edgeStyle=orthogonalEdgeStyle;curved=1;html=1;exitX=0.5;exitY=1;exitDx=0;exitDy=0;entryX=1;entryY=0.5;entryDx=0;entryDy=0;rounded=0;" parent="1" source="7" target="77" edge="1">
                    <mxGeometry relative="1" as="geometry"/>
                </mxCell>
                <mxCell id="7" value="Tela de Execução do Exame" style="rounded=0;whiteSpace=wrap;html=1;" parent="1" vertex="1">
                    <mxGeometry x="660" y="314" width="120" height="60" as="geometry"/>
                </mxCell>
                <mxCell id="57" value="" style="endArrow=classic;html=1;curved=1;entryX=0.5;entryY=0;entryDx=0;entryDy=0;exitX=0;exitY=0.5;exitDx=0;exitDy=0;rounded=0;" parent="1" source="2" target="3" edge="1">
                    <mxGeometry relative="1" as="geometry">
                        <mxPoint x="379" y="374" as="sourcePoint"/>
                        <mxPoint x="479" y="374" as="targetPoint"/>
                        <Array as="points">
                            <mxPoint x="414" y="204"/>
                        </Array>
                    </mxGeometry>
                </mxCell>
                <mxCell id="58" value="JSON (Paciente)" style="edgeLabel;resizable=0;html=1;align=center;verticalAlign=middle;rotation=-50;rounded=0;" parent="57" connectable="0" vertex="1">
                    <mxGeometry relative="1" as="geometry">
                        <mxPoint x="56" y="59" as="offset"/>
                    </mxGeometry>
                </mxCell>
                <mxCell id="64" style="edgeStyle=orthogonalEdgeStyle;curved=1;html=1;exitX=0.5;exitY=1;exitDx=0;exitDy=0;entryX=0.5;entryY=0;entryDx=0;entryDy=0;rounded=0;" parent="1" source="61" target="63" edge="1">
                    <mxGeometry relative="1" as="geometry"/>
                </mxCell>
                <mxCell id="61" value="Central" style="shape=hexagon;perimeter=hexagonPerimeter2;whiteSpace=wrap;html=1;fixedSize=1;rounded=0;" parent="1" vertex="1">
                    <mxGeometry x="120" y="154" width="120" height="80" as="geometry"/>
                </mxCell>
                <mxCell id="63" value="Tela de Registro do Médico" style="ellipse;whiteSpace=wrap;html=1;rounded=0;" parent="1" vertex="1">
                    <mxGeometry x="120" y="284" width="120" height="90" as="geometry"/>
                </mxCell>
                <mxCell id="66" value="" style="endArrow=classic;html=1;curved=1;exitX=0.5;exitY=1;exitDx=0;exitDy=0;entryX=0;entryY=0.5;entryDx=0;entryDy=0;rounded=0;" parent="1" source="63" target="3" edge="1">
                    <mxGeometry relative="1" as="geometry">
                        <mxPoint x="180" y="454" as="sourcePoint"/>
                        <mxPoint x="280" y="454" as="targetPoint"/>
                        <Array as="points">
                            <mxPoint x="220" y="514"/>
                        </Array>
                    </mxGeometry>
                </mxCell>
                <mxCell id="67" value="JSON (Médico)" style="edgeLabel;resizable=0;html=1;align=center;verticalAlign=middle;rotation=35;rounded=0;" parent="66" connectable="0" vertex="1">
                    <mxGeometry relative="1" as="geometry">
                        <mxPoint x="14" y="-50" as="offset"/>
                    </mxGeometry>
                </mxCell>
                <mxCell id="69" style="edgeStyle=elbowEdgeStyle;elbow=vertical;html=1;exitX=1;exitY=0.5;exitDx=0;exitDy=0;entryX=0.5;entryY=0;entryDx=0;entryDy=0;rounded=0;" parent="1" source="68" target="2" edge="1">
                    <mxGeometry relative="1" as="geometry">
                        <mxPoint x="720" y="110" as="targetPoint"/>
                        <Array as="points">
                            <mxPoint x="650" y="60"/>
                        </Array>
                    </mxGeometry>
                </mxCell>
                <mxCell id="68" value="Aplicativo" style="rounded=0;whiteSpace=wrap;html=1;" parent="1" vertex="1">
                    <mxGeometry x="460" y="30" width="120" height="60" as="geometry"/>
                </mxCell>
                <mxCell id="77" value="Execução Exame" style="rhombus;whiteSpace=wrap;html=1;rounded=0;" parent="1" vertex="1">
                    <mxGeometry x="530" y="374" width="80" height="80" as="geometry"/>
                </mxCell>
                <mxCell id="80" value="" style="endArrow=classic;html=1;curved=1;exitX=0.5;exitY=1;exitDx=0;exitDy=0;entryX=1;entryY=0.5;entryDx=0;entryDy=0;rounded=0;" parent="1" source="77" target="3" edge="1">
                    <mxGeometry relative="1" as="geometry">
                        <mxPoint x="460" y="530" as="sourcePoint"/>
                        <mxPoint x="560" y="530" as="targetPoint"/>
                        <Array as="points">
                            <mxPoint x="540" y="504"/>
                        </Array>
                    </mxGeometry>
                </mxCell>
                <mxCell id="81" value="Resultado" style="edgeLabel;resizable=0;html=1;align=center;verticalAlign=middle;rotation=-25;rounded=0;" parent="80" connectable="0" vertex="1">
                    <mxGeometry relative="1" as="geometry">
                        <mxPoint x="-3" y="-14" as="offset"/>
                    </mxGeometry>
                </mxCell>
                <mxCell id="85" value="" style="endArrow=classic;html=1;curved=1;entryX=0.5;entryY=0;entryDx=0;entryDy=0;rounded=0;" parent="1" target="77" edge="1">
                    <mxGeometry relative="1" as="geometry">
                        <mxPoint x="590" y="180" as="sourcePoint"/>
                        <mxPoint x="590" y="284" as="targetPoint"/>
                        <Array as="points">
                            <mxPoint x="600" y="300"/>
                        </Array>
                    </mxGeometry>
                </mxCell>
            </root>
        </mxGraphModel>
    </diagram>
    <diagram id="c5eQmipD6wHeNh4ohFVG" name="Page-4">
        <mxGraphModel dx="1186" dy="800" grid="1" gridSize="13" guides="1" tooltips="1" connect="1" arrows="1" fold="1" page="1" pageScale="1" pageWidth="827" pageHeight="1169" math="0" shadow="0">
            <root>
                <mxCell id="Cp2f4sA8zX2eSTBaF7nA-0"/>
                <mxCell id="Cp2f4sA8zX2eSTBaF7nA-1" parent="Cp2f4sA8zX2eSTBaF7nA-0"/>
                <mxCell id="Cp2f4sA8zX2eSTBaF7nA-5" style="edgeStyle=orthogonalEdgeStyle;curved=1;html=1;exitX=1;exitY=0.5;exitDx=0;exitDy=0;entryX=0;entryY=0.5;entryDx=0;entryDy=0;" parent="Cp2f4sA8zX2eSTBaF7nA-1" source="Cp2f4sA8zX2eSTBaF7nA-2" target="Cp2f4sA8zX2eSTBaF7nA-3" edge="1">
                    <mxGeometry relative="1" as="geometry"/>
                </mxCell>
                <mxCell id="Cp2f4sA8zX2eSTBaF7nA-2" value="Aplicativo" style="ellipse;whiteSpace=wrap;html=1;" parent="Cp2f4sA8zX2eSTBaF7nA-1" vertex="1">
                    <mxGeometry x="52" y="52" width="120" height="80" as="geometry"/>
                </mxCell>
                <mxCell id="Cp2f4sA8zX2eSTBaF7nA-6" style="edgeStyle=orthogonalEdgeStyle;curved=1;html=1;exitX=1;exitY=0.5;exitDx=0;exitDy=0;entryX=0;entryY=0.5;entryDx=0;entryDy=0;" parent="Cp2f4sA8zX2eSTBaF7nA-1" source="Cp2f4sA8zX2eSTBaF7nA-3" target="Cp2f4sA8zX2eSTBaF7nA-4" edge="1">
                    <mxGeometry relative="1" as="geometry"/>
                </mxCell>
                <mxCell id="Cp2f4sA8zX2eSTBaF7nA-10" style="edgeStyle=elbowEdgeStyle;elbow=vertical;html=1;exitX=0.5;exitY=1;exitDx=0;exitDy=0;entryX=0.5;entryY=0;entryDx=0;entryDy=0;" parent="Cp2f4sA8zX2eSTBaF7nA-1" source="Cp2f4sA8zX2eSTBaF7nA-3" target="Cp2f4sA8zX2eSTBaF7nA-9" edge="1">
                    <mxGeometry relative="1" as="geometry"/>
                </mxCell>
                <mxCell id="Cp2f4sA8zX2eSTBaF7nA-3" value="Tela de Registro do Paciente" style="rounded=0;whiteSpace=wrap;html=1;" parent="Cp2f4sA8zX2eSTBaF7nA-1" vertex="1">
                    <mxGeometry x="234" y="62" width="120" height="60" as="geometry"/>
                </mxCell>
                <mxCell id="Cp2f4sA8zX2eSTBaF7nA-12" style="edgeStyle=elbowEdgeStyle;elbow=vertical;html=1;exitX=0.5;exitY=1;exitDx=0;exitDy=0;entryX=0.5;entryY=0;entryDx=0;entryDy=0;" parent="Cp2f4sA8zX2eSTBaF7nA-1" source="Cp2f4sA8zX2eSTBaF7nA-4" target="Cp2f4sA8zX2eSTBaF7nA-11" edge="1">
                    <mxGeometry relative="1" as="geometry"/>
                </mxCell>
                <mxCell id="Cp2f4sA8zX2eSTBaF7nA-4" value="Tela de Execução do Exame" style="rounded=0;whiteSpace=wrap;html=1;" parent="Cp2f4sA8zX2eSTBaF7nA-1" vertex="1">
                    <mxGeometry x="429" y="62" width="120" height="60" as="geometry"/>
                </mxCell>
                <mxCell id="Cp2f4sA8zX2eSTBaF7nA-18" style="edgeStyle=elbowEdgeStyle;elbow=vertical;html=1;exitX=1;exitY=0.5;exitDx=0;exitDy=0;entryX=0;entryY=0.5;entryDx=0;entryDy=0;" parent="Cp2f4sA8zX2eSTBaF7nA-1" source="Cp2f4sA8zX2eSTBaF7nA-9" target="Cp2f4sA8zX2eSTBaF7nA-11" edge="1">
                    <mxGeometry relative="1" as="geometry"/>
                </mxCell>
                <mxCell id="shnXBX6N6J2jyqU-Tu29-17" style="edgeStyle=orthogonalEdgeStyle;html=1;exitX=0;exitY=0.5;exitDx=0;exitDy=0;entryX=0.5;entryY=0;entryDx=0;entryDy=0;elbow=vertical;" parent="Cp2f4sA8zX2eSTBaF7nA-1" source="Cp2f4sA8zX2eSTBaF7nA-9" target="Cp2f4sA8zX2eSTBaF7nA-4" edge="1">
                    <mxGeometry relative="1" as="geometry">
                        <Array as="points">
                            <mxPoint x="26" y="222"/>
                            <mxPoint x="26" y="26"/>
                            <mxPoint x="489" y="26"/>
                        </Array>
                    </mxGeometry>
                </mxCell>
                <mxCell id="Cp2f4sA8zX2eSTBaF7nA-9" value="Paciente" style="rhombus;whiteSpace=wrap;html=1;" parent="Cp2f4sA8zX2eSTBaF7nA-1" vertex="1">
                    <mxGeometry x="65" y="182" width="80" height="80" as="geometry"/>
                </mxCell>
                <mxCell id="Cp2f4sA8zX2eSTBaF7nA-11" value="Exame" style="rhombus;whiteSpace=wrap;html=1;" parent="Cp2f4sA8zX2eSTBaF7nA-1" vertex="1">
                    <mxGeometry x="312" y="182" width="80" height="80" as="geometry"/>
                </mxCell>
                <mxCell id="shnXBX6N6J2jyqU-Tu29-1" style="edgeStyle=elbowEdgeStyle;elbow=vertical;html=1;exitX=0.5;exitY=1;exitDx=0;exitDy=0;entryX=0.5;entryY=0;entryDx=0;entryDy=0;" parent="Cp2f4sA8zX2eSTBaF7nA-1" source="k6C6emiuX7I-ILnMSGUc-0" target="Cp2f4sA8zX2eSTBaF7nA-14" edge="1">
                    <mxGeometry relative="1" as="geometry">
                        <mxPoint x="749" y="132" as="sourcePoint"/>
                    </mxGeometry>
                </mxCell>
                <mxCell id="Cp2f4sA8zX2eSTBaF7nA-16" style="edgeStyle=elbowEdgeStyle;elbow=vertical;html=1;exitX=0;exitY=0.5;exitDx=0;exitDy=0;entryX=1;entryY=0.5;entryDx=0;entryDy=0;" parent="Cp2f4sA8zX2eSTBaF7nA-1" source="Cp2f4sA8zX2eSTBaF7nA-14" target="Cp2f4sA8zX2eSTBaF7nA-15" edge="1">
                    <mxGeometry relative="1" as="geometry"/>
                </mxCell>
                <mxCell id="Cp2f4sA8zX2eSTBaF7nA-14" value="Tela de Registro do Médico" style="rounded=0;whiteSpace=wrap;html=1;" parent="Cp2f4sA8zX2eSTBaF7nA-1" vertex="1">
                    <mxGeometry x="689" y="192" width="120" height="60" as="geometry"/>
                </mxCell>
                <mxCell id="Cp2f4sA8zX2eSTBaF7nA-17" style="edgeStyle=elbowEdgeStyle;elbow=vertical;html=1;exitX=0;exitY=0.5;exitDx=0;exitDy=0;entryX=1;entryY=0.5;entryDx=0;entryDy=0;" parent="Cp2f4sA8zX2eSTBaF7nA-1" source="Cp2f4sA8zX2eSTBaF7nA-15" target="Cp2f4sA8zX2eSTBaF7nA-11" edge="1">
                    <mxGeometry relative="1" as="geometry"/>
                </mxCell>
                <mxCell id="shnXBX6N6J2jyqU-Tu29-10" style="edgeStyle=elbowEdgeStyle;html=1;exitX=0.5;exitY=0;exitDx=0;exitDy=0;entryX=1;entryY=0.5;entryDx=0;entryDy=0;" parent="Cp2f4sA8zX2eSTBaF7nA-1" source="Cp2f4sA8zX2eSTBaF7nA-15" target="Cp2f4sA8zX2eSTBaF7nA-4" edge="1">
                    <mxGeometry relative="1" as="geometry">
                        <Array as="points">
                            <mxPoint x="573" y="143"/>
                        </Array>
                    </mxGeometry>
                </mxCell>
                <mxCell id="Cp2f4sA8zX2eSTBaF7nA-15" value="Médico" style="rhombus;whiteSpace=wrap;html=1;" parent="Cp2f4sA8zX2eSTBaF7nA-1" vertex="1">
                    <mxGeometry x="533" y="182" width="80" height="80" as="geometry"/>
                </mxCell>
                <mxCell id="shnXBX6N6J2jyqU-Tu29-0" value="Servidor" style="shape=datastore;whiteSpace=wrap;html=1;rounded=0;" parent="Cp2f4sA8zX2eSTBaF7nA-1" vertex="1">
                    <mxGeometry x="317" y="364" width="70" height="100" as="geometry"/>
                </mxCell>
                <mxCell id="shnXBX6N6J2jyqU-Tu29-6" value="" style="endArrow=classic;startArrow=classic;html=1;entryX=0.5;entryY=1;entryDx=0;entryDy=0;exitX=0.5;exitY=0;exitDx=0;exitDy=0;" parent="Cp2f4sA8zX2eSTBaF7nA-1" source="shnXBX6N6J2jyqU-Tu29-0" target="Cp2f4sA8zX2eSTBaF7nA-11" edge="1">
                    <mxGeometry width="50" height="50" relative="1" as="geometry">
                        <mxPoint x="317" y="323" as="sourcePoint"/>
                        <mxPoint x="367" y="273" as="targetPoint"/>
                    </mxGeometry>
                </mxCell>
                <mxCell id="shnXBX6N6J2jyqU-Tu29-8" value="" style="endArrow=classic;startArrow=classic;html=1;exitX=1;exitY=0.5;exitDx=0;exitDy=0;entryX=0.5;entryY=1;entryDx=0;entryDy=0;" parent="Cp2f4sA8zX2eSTBaF7nA-1" source="shnXBX6N6J2jyqU-Tu29-0" target="Cp2f4sA8zX2eSTBaF7nA-15" edge="1">
                    <mxGeometry width="50" height="50" relative="1" as="geometry">
                        <mxPoint x="429" y="401" as="sourcePoint"/>
                        <mxPoint x="479" y="351" as="targetPoint"/>
                        <Array as="points">
                            <mxPoint x="573" y="414"/>
                        </Array>
                    </mxGeometry>
                </mxCell>
                <mxCell id="shnXBX6N6J2jyqU-Tu29-9" value="" style="endArrow=classic;startArrow=classic;html=1;entryX=0.5;entryY=1;entryDx=0;entryDy=0;exitX=0;exitY=0.5;exitDx=0;exitDy=0;" parent="Cp2f4sA8zX2eSTBaF7nA-1" source="shnXBX6N6J2jyqU-Tu29-0" target="Cp2f4sA8zX2eSTBaF7nA-9" edge="1">
                    <mxGeometry width="50" height="50" relative="1" as="geometry">
                        <mxPoint x="145" y="364" as="sourcePoint"/>
                        <mxPoint x="195" y="314" as="targetPoint"/>
                        <Array as="points">
                            <mxPoint x="105" y="414"/>
                        </Array>
                    </mxGeometry>
                </mxCell>
                <mxCell id="k6C6emiuX7I-ILnMSGUc-0" value="Central" style="ellipse;whiteSpace=wrap;html=1;" parent="Cp2f4sA8zX2eSTBaF7nA-1" vertex="1">
                    <mxGeometry x="689" y="52" width="120" height="80" as="geometry"/>
                </mxCell>
            </root>
        </mxGraphModel>
    </diagram>
</mxfile>